<?xml version="1.0" encoding="UTF-8"?>
<svg version="1.1" xmlns="http://www.w3.org/2000/svg" width="1080" height="1080">
<path d="M0 0 C356.4 0 712.8 0 1080 0 C1080 356.4 1080 712.8 1080 1080 C723.6 1080 367.2 1080 0 1080 C0 723.6 0 367.2 0 0 Z " fill="#1C2120" transform="translate(0,0)"/>
<path d="M0 0 C9.24 0 18.48 0 28 0 C28 12.54 28 25.08 28 38 C41.2 38 54.4 38 68 38 C68 25.46 68 12.92 68 0 C77.24 0 86.48 0 96 0 C96 33.33 96 66.66 96 101 C86.76 101 77.52 101 68 101 C68 87.8 68 74.6 68 61 C54.8 61 41.6 61 28 61 C28 74.2 28 87.4 28 101 C18.76 101 9.52 101 0 101 C0 67.67 0 34.34 0 0 Z " fill="#FFFFFF" transform="translate(655,473)"/>
<path d="M0 0 C9.24 0 18.48 0 28 0 C34.73696145 13.4739229 34.73696145 13.4739229 36.796875 18.328125 C37.27165283 19.43760498 37.74643066 20.54708496 38.2355957 21.69018555 C38.98522583 23.4522937 38.98522583 23.4522937 39.75 25.25 C45.83539497 39.45922131 52.16473432 53.55383053 58.55566406 67.62792969 C62.31662098 75.92626882 65.99977607 84.25054791 69.54296875 92.64453125 C69.8910408 93.46781418 70.23911285 94.29109711 70.59773254 95.139328 C73 100.87284071 73 100.87284071 73 102 C63.1 102 53.2 102 43 102 C40.36 95.73 37.72 89.46 35 83 C20.81 82.67 6.62 82.34 -8 82 C-8.99 84.97 -9.98 87.94 -11 91 C-12.32 94.63 -13.64 98.26 -15 102 C-24.9 102 -34.8 102 -45 102 C-42.75008535 95.25025606 -42.75008535 95.25025606 -41.33032227 92.05395508 C-41.0107103 91.33074066 -40.69109833 90.60752625 -40.36180115 89.86239624 C-40.01682083 89.08925079 -39.67184052 88.31610535 -39.31640625 87.51953125 C-38.94882706 86.68966705 -38.58124786 85.85980286 -38.20252991 85.00479126 C-36.99177738 82.27287001 -35.77719378 79.54267086 -34.5625 76.8125 C-33.71572289 74.9044937 -32.86920995 72.99637015 -32.02294922 71.08813477 C-30.70313126 68.11218122 -29.38309199 65.13632787 -28.06201172 62.16093445 C-24.92533771 55.09481275 -21.80436656 48.02190957 -18.69140625 40.9453125 C-17.41423985 38.04449874 -16.13691932 35.14375289 -14.85958862 32.24301147 C-14.04366054 30.38887516 -13.22848174 28.53440891 -12.41409302 26.67959595 C-11.27054232 24.07574581 -10.12386727 21.47329152 -8.9765625 18.87109375 C-8.64705093 18.1185733 -8.31753937 17.36605286 -7.9780426 16.59072876 C-5.48677266 10.95175839 -2.76630962 5.53261923 0 0 Z " fill="#FCFCFC" transform="translate(456,472)"/>
<path d="M0 0 C29.04 0 58.08 0 88 0 C88 21.13520752 88 21.13520752 83.83569336 25.44360352 C83.25053955 25.95721436 82.66538574 26.4708252 82.0625 27 C80.85547364 28.21616184 79.64974904 29.43361701 78.4453125 30.65234375 C77.85266602 31.22065918 77.26001953 31.78897461 76.64941406 32.37451172 C74.37496787 34.61596565 72.41383376 37.05744227 70.4375 39.5625 C66.57267051 44.33171373 62.60050581 48.99798597 58.59716797 53.65063477 C55.06794142 57.75230524 51.55652682 61.8682983 48.0625 66 C47.62631348 66.51546387 47.19012695 67.03092773 46.74072266 67.56201172 C43.81121943 71.02845893 40.90563629 74.51323645 38 78 C55.16 78.33 72.32 78.66 90 79 C90 86.59 90 94.18 90 102 C59.97 102 29.94 102 -1 102 C-1 83 -1 83 3.4375 77 C5.2786425 75.31895685 7.13270214 73.65194143 9 72 C10.49529119 70.26026121 11.95436096 68.4887139 13.375 66.6875 C16.84370806 62.39144991 20.39439275 58.18075912 24 54 C29.10057975 48.07835131 34.07376136 42.06855484 39 36 C41.97 32.37 44.94 28.74 48 25 C32.16 24.67 16.32 24.34 0 24 C0 16.08 0 8.16 0 0 Z " fill="#FAFAFA" transform="translate(308,472)"/>
<path d="M0 0 C29.04 0 58.08 0 88 0 C88 21.13520752 88 21.13520752 83.83569336 25.44360352 C83.25053955 25.95721436 82.66538574 26.4708252 82.0625 27 C80.85547364 28.21616184 79.64974904 29.43361701 78.4453125 30.65234375 C77.85266602 31.22065918 77.26001953 31.78897461 76.64941406 32.37451172 C74.37496787 34.61596565 72.41383376 37.05744227 70.4375 39.5625 C66.57267051 44.33171373 62.60050581 48.99798597 58.59716797 53.65063477 C55.06794142 57.75230524 51.55652682 61.8682983 48.0625 66 C47.62631348 66.51546387 47.19012695 67.03092773 46.74072266 67.56201172 C43.81121943 71.02845893 40.90563629 74.51323645 38 78 C55.16 78.33 72.32 78.66 90 79 C90 86.59 90 94.18 90 102 C59.97 102 29.94 102 -1 102 C-1 83 -1 83 3.4375 77 C5.2786425 75.31895685 7.13270214 73.65194143 9 72 C10.49529119 70.26026121 11.95436096 68.4887139 13.375 66.6875 C16.84370806 62.39144991 20.39439275 58.18075912 24 54 C29.10057975 48.07835131 34.07376136 42.06855484 39 36 C41.97 32.37 44.94 28.74 48 25 C32.16 24.67 16.32 24.34 0 24 C0 16.08 0 8.16 0 0 Z " fill="#FAFAFA" transform="translate(197,472)"/>
<path d="M0 0 C58.41 0 116.82 0 177 0 C177 8.58 177 17.16 177 26 C118.59 26 60.18 26 0 26 C0 17.42 0 8.84 0 0 Z " fill="#FDFDFD" transform="translate(191,611)"/>
<path d="M0 0 C25.50025145 -2.49485057 25.50025145 -2.49485057 32.19287109 1.21582031 C35.60006349 4.63255666 37.18864955 8.95236688 38.88623047 13.39648438 C41.0765527 18.51651862 44.20669971 23.14540774 47.125 27.875 C48.26074591 29.76335618 49.3889908 31.65625503 50.5078125 33.5546875 C50.98879395 34.36405762 51.46977539 35.17342773 51.96533203 36.00732422 C53 38 53 38 53 40 C56.02667194 37.35151547 57.85864714 34.09062997 59.8359375 30.64453125 C60.19716705 30.02406418 60.55839661 29.40359711 60.93057251 28.764328 C62.08312255 26.78290584 63.22932449 24.79790359 64.375 22.8125 C65.13756306 21.49647943 65.90057951 20.18072146 66.6640625 18.86523438 C67.03458237 18.22540619 67.40510223 17.585578 67.78684998 16.92636108 C68.52445771 15.66106042 69.26844573 14.39945644 70.01893616 13.14175415 C71.5473198 10.57338835 72.97477326 8.05904267 74.15014648 5.30810547 C75.22543139 2.92626887 75.91334362 1.58379368 78 0 C82.80751813 -0.96392614 87.4353269 -0.75272845 92.3125 -0.5 C93.62541016 -0.46390625 94.93832031 -0.4278125 96.29101562 -0.390625 C99.53030187 -0.29639122 102.76366962 -0.16494088 106 0 C104.49985148 4.10327706 102.48731609 7.77126586 100.24609375 11.50390625 C99.87286484 12.13032013 99.49963593 12.75673401 99.11509705 13.40213013 C98.31061463 14.75157048 97.50476775 16.10019815 96.69769287 17.4480896 C95.41750692 19.59604532 94.15301359 21.75263531 92.89111328 23.91137695 C88.83367646 30.81747255 84.70522495 37.55653468 79.99609375 44.0390625 C66.43072377 63.10167038 65.78657402 79.23262585 67 102 C57.43 102 47.86 102 38 102 C38.020625 99.33550781 38.04125 96.67101562 38.0625 93.92578125 C38.05525108 91.30085234 38.03435361 88.67635441 38.01220703 86.05151367 C38.00417277 84.24878659 38.00998693 82.44593582 38.03076172 80.64331055 C38.16422707 67.99571246 36.67298396 60.42538971 29 50 C27.4110747 47.46567691 25.91374923 44.88083787 24.4140625 42.29296875 C23.62585745 40.95719442 22.8365404 39.62207566 22.04614258 38.28759766 C21.64972565 37.61625793 21.25330872 36.94491821 20.84487915 36.25323486 C11.9252384 21.11911536 11.9252384 21.11911536 2.59033203 6.23901367 C0 2.20232433 0 2.20232433 0 0 Z " fill="#FBFBFB" transform="translate(771,472)"/>
<path d="M0 0 C30.36 0 60.72 0 92 0 C92 7.59 92 15.18 92 23 C81.44 23 70.88 23 60 23 C60 49.07 60 75.14 60 102 C50.43 102 40.86 102 31 102 C31 76.26 31 50.52 31 24 C20.77 24 10.54 24 0 24 C0 16.08 0 8.16 0 0 Z " fill="#F8F9F9" transform="translate(540,472)"/>
<path d="M0 0 C3.12740787 2.0612461 4.33498308 3.35356975 5.75 6.8125 C6.28632889 11.81823632 5.85708223 14.81767999 2.75 18.8125 C-1.03408267 22.18704991 -3.83766877 22.37669393 -8.76953125 22.23828125 C-12.83065982 21.54117414 -14.50558026 19.83839869 -17.25 16.8125 C-18.75186547 12.30690359 -18.96589695 8.47036663 -17.0625 4.0625 C-12.34785657 -1.79016081 -6.95235198 -2.54028245 0 0 Z " fill="#232827" transform="translate(810.25,613.1875)"/>
<path d="M0 0 C2.51659977 3.06934722 4.00815521 6.075917 5.48046875 9.75390625 C5.92197266 10.85541016 6.36347656 11.95691406 6.81835938 13.09179688 C7.27017578 14.23712891 7.72199219 15.38246094 8.1875 16.5625 C8.65091797 17.71169922 9.11433594 18.86089844 9.59179688 20.04492188 C13 28.61311441 13 28.61311441 13 32 C4.75 32 -3.5 32 -12 32 C-8.625 20.75 -8.625 20.75 -6.73828125 16.2109375 C-6.34189453 15.25058594 -5.94550781 14.29023437 -5.53710938 13.30078125 C-5.13298828 12.33527344 -4.72886719 11.36976563 -4.3125 10.375 C-3.68891602 8.86873047 -3.68891602 8.86873047 -3.05273438 7.33203125 C-2.03945904 4.88619424 -1.02183204 2.4422715 0 0 Z " fill="#222726" transform="translate(469,501)"/>
<path d="M0 0 C1.32 0 2.64 0 4 0 C7.3 7.26 10.6 14.52 14 22 C12.68 22.33 11.36 22.66 10 23 C9.34 21.68 8.68 20.36 8 19 C4.04 19 0.08 19 -4 19 C-4.66 20.32 -5.32 21.64 -6 23 C-7.32 22.67 -8.64 22.34 -10 22 C-6.7 14.74 -3.4 7.48 0 0 Z " fill="#E0E0E0" transform="translate(708,612)"/>
<path d="M0 0 C1.85253906 0.24072266 1.85253906 0.24072266 4 1 C5.28027344 2.81005859 5.28027344 2.81005859 6.359375 5.1484375 C6.75253906 5.98890625 7.14570312 6.829375 7.55078125 7.6953125 C7.94652344 8.57960938 8.34226562 9.46390625 8.75 10.375 C9.16121094 11.2515625 9.57242188 12.128125 9.99609375 13.03125 C13 19.55800976 13 19.55800976 13 23 C11.0625 22.6875 11.0625 22.6875 9 22 C8.67 21.01 8.34 20.02 8 19 C3.71 18.67 -0.58 18.34 -5 18 C-5.33 19.65 -5.66 21.3 -6 23 C-7.32 23 -8.64 23 -10 23 C-8.41980408 17.7936703 -6.22115005 13.01626689 -3.875 8.125 C-3.50246094 7.34125 -3.12992188 6.5575 -2.74609375 5.75 C-1.83381003 3.83186501 -0.91733016 1.91572671 0 0 Z " fill="#E4E5E5" transform="translate(598,612)"/>
<path d="M0 0 C1.85253906 0.24072266 1.85253906 0.24072266 4 1 C5.28027344 2.81005859 5.28027344 2.81005859 6.359375 5.1484375 C6.75253906 5.98890625 7.14570313 6.829375 7.55078125 7.6953125 C7.94652344 8.57960938 8.34226562 9.46390625 8.75 10.375 C9.16121094 11.2515625 9.57242187 12.128125 9.99609375 13.03125 C13 19.55800976 13 19.55800976 13 23 C11.0625 22.6875 11.0625 22.6875 9 22 C8.67 21.01 8.34 20.02 8 19 C3.71 18.67 -0.58 18.34 -5 18 C-5.33 19.65 -5.66 21.3 -6 23 C-7.32 23 -8.64 23 -10 23 C-8.41980408 17.7936703 -6.22115005 13.01626689 -3.875 8.125 C-3.50246094 7.34125 -3.12992187 6.5575 -2.74609375 5.75 C-1.83381003 3.83186501 -0.91733016 1.91572671 0 0 Z " fill="#E4E5E5" transform="translate(470,612)"/>
<path d="M0 0 C1.32 0 2.64 0 4 0 C4 3.3 4 6.6 4 10 C7.96 10 11.92 10 16 10 C16 6.7 16 3.4 16 0 C17.32 0 18.64 0 20 0 C20 7.59 20 15.18 20 23 C18.68 23 17.36 23 16 23 C16 19.7 16 16.4 16 13 C12.04 13 8.08 13 4 13 C4 16.3 4 19.6 4 23 C2.68 23 1.36 23 0 23 C0 15.41 0 7.82 0 0 Z " fill="#DADBDB" transform="translate(529,612)"/>
<path d="M0 0 C3.12740787 2.0612461 4.33498308 3.35356975 5.75 6.8125 C6.28632889 11.81823632 5.85708223 14.81767999 2.75 18.8125 C-1.03408267 22.18704991 -3.83766877 22.37669393 -8.76953125 22.23828125 C-12.83065982 21.54117414 -14.50558026 19.83839869 -17.25 16.8125 C-18.75186547 12.30690359 -18.96589695 8.47036663 -17.0625 4.0625 C-12.34785657 -1.79016081 -6.95235198 -2.54028245 0 0 Z M-14.25 5.8125 C-15.18605213 9.30709462 -15.6242539 11.65855048 -14.5 15.125 C-13.18353552 17.10122927 -13.18353552 17.10122927 -10.25 18.8125 C-4.7238216 19.37079599 -4.7238216 19.37079599 0.25 17.375 C2.47920717 13.56677109 2.65705593 10.11115635 1.75 5.8125 C-0.79471222 2.74387644 -2.33941981 1.96426337 -6.25 1.3125 C-10.08460553 1.95160092 -11.65320527 2.91892873 -14.25 5.8125 Z " fill="#E4E4E4" transform="translate(810.25,613.1875)"/>
<path d="M0 0 C4.5 1.125 4.5 1.125 6.796875 3.94140625 C7.52197266 4.81635742 7.52197266 4.81635742 8.26171875 5.70898438 C8.99841797 6.62647461 8.99841797 6.62647461 9.75 7.5625 C10.25660156 8.17802734 10.76320313 8.79355469 11.28515625 9.42773438 C12.53185595 10.94494438 13.7670638 12.47158426 15 14 C15.33 9.38 15.66 4.76 16 0 C16.99 0 17.98 0 19 0 C19 7.26 19 14.52 19 22 C14.5 20.875 14.5 20.875 12.203125 17.83984375 C11.71972656 17.21142578 11.23632812 16.58300781 10.73828125 15.93554688 C10.24714844 15.27619141 9.75601563 14.61683594 9.25 13.9375 C8.74339844 13.27427734 8.23679687 12.61105469 7.71484375 11.92773438 C6.46748114 10.2920419 5.23252182 8.64690416 4 7 C3.67 11.95 3.34 16.9 3 22 C2.01 22 1.02 22 0 22 C0 14.74 0 7.48 0 0 Z " fill="#F8F8F8" transform="translate(829,613)"/>
<path d="M0 0 C4.5 1.125 4.5 1.125 6.796875 4.16015625 C7.28027344 4.78857422 7.76367188 5.41699219 8.26171875 6.06445312 C8.75285156 6.72380859 9.24398437 7.38316406 9.75 8.0625 C10.25660156 8.72572266 10.76320313 9.38894531 11.28515625 10.07226562 C12.53251886 11.7079581 13.76747818 13.35309584 15 15 C15.33 10.05 15.66 5.1 16 0 C16.99 0 17.98 0 19 0 C19 7.26 19 14.52 19 22 C14.5 20.875 14.5 20.875 12.203125 17.83984375 C11.71972656 17.21142578 11.23632812 16.58300781 10.73828125 15.93554688 C10.24714844 15.27619141 9.75601563 14.61683594 9.25 13.9375 C8.74339844 13.27427734 8.23679687 12.61105469 7.71484375 11.92773438 C6.46748114 10.2920419 5.23252182 8.64690416 4 7 C3.67 11.95 3.34 16.9 3 22 C2.01 22 1.02 22 0 22 C0 14.74 0 7.48 0 0 Z " fill="#F4F4F4" transform="translate(623,613)"/>
<path d="M0 0 C6.27 0 12.54 0 19 0 C18.10340382 3.58638472 17.69482557 4.72475174 15.53125 7.41796875 C15.04269531 8.03220703 14.55414063 8.64644531 14.05078125 9.27929688 C13.53902344 9.90900391 13.02726562 10.53871094 12.5 11.1875 C11.98824219 11.82880859 11.47648437 12.47011719 10.94921875 13.13085938 C7.25979663 17.74020337 7.25979663 17.74020337 6 19 C10.29 19.33 14.58 19.66 19 20 C19 20.99 19 21.98 19 23 C12.73 23 6.46 23 0 23 C0.9337658 19.26493679 1.3041086 18.30006674 3.6875 15.6171875 C4.22117187 15.00746094 4.75484375 14.39773438 5.3046875 13.76953125 C5.86414063 13.14433594 6.42359375 12.51914062 7 11.875 C8.10586486 10.62389483 9.21011014 9.37135568 10.3125 8.1171875 C10.80363281 7.56659668 11.29476563 7.01600586 11.80078125 6.44873047 C13.09746176 4.99327197 13.09746176 4.99327197 14 3 C9.38 3 4.76 3 0 3 C0 2.01 0 1.02 0 0 Z " fill="#DBDCDB" transform="translate(432,612)"/>
<path d="M0 0 C6.27 0 12.54 0 19 0 C18.10340382 3.58638472 17.69482557 4.72475174 15.53125 7.41796875 C15.04269531 8.03220703 14.55414063 8.64644531 14.05078125 9.27929688 C13.53902344 9.90900391 13.02726562 10.53871094 12.5 11.1875 C11.98824219 11.82880859 11.47648437 12.47011719 10.94921875 13.13085938 C7.25979663 17.74020337 7.25979663 17.74020337 6 19 C10.29 19.33 14.58 19.66 19 20 C19 20.99 19 21.98 19 23 C12.73 23 6.46 23 0 23 C0.9337658 19.26493679 1.3041086 18.30006674 3.6875 15.6171875 C4.22117187 15.00746094 4.75484375 14.39773438 5.3046875 13.76953125 C5.86414063 13.14433594 6.42359375 12.51914062 7 11.875 C8.10586486 10.62389483 9.21011014 9.37135568 10.3125 8.1171875 C10.80363281 7.56659668 11.29476563 7.01600586 11.80078125 6.44873047 C13.09746176 4.99327197 13.09746176 4.99327197 14 3 C9.38 3 4.76 3 0 3 C0 2.01 0 1.02 0 0 Z " fill="#DBDCDB" transform="translate(403,612)"/>
<path d="M0 0 C5.28 0 10.56 0 16 0 C16 1.32 16 2.64 16 4 C12.04 4 8.08 4 4 4 C4 6.31 4 8.62 4 11 C7.63 11 11.26 11 15 11 C15 11.99 15 12.98 15 14 C11.37 14 7.74 14 4 14 C4 16.97 4 19.94 4 23 C2.68 23 1.36 23 0 23 C0 15.41 0 7.82 0 0 Z " fill="#D6D7D7" transform="translate(673,612)"/>
<path d="M0 0 C0.99 0 1.98 0 3 0 C3 2.97 3 5.94 3 9 C7.29 9 11.58 9 16 9 C16 6.03 16 3.06 16 0 C16.99 0 17.98 0 19 0 C19 7.26 19 14.52 19 22 C18.01 22 17.02 22 16 22 C16 18.7 16 15.4 16 12 C11.71 12 7.42 12 3 12 C3 15.3 3 18.6 3 22 C2.01 22 1.02 22 0 22 C0 14.74 0 7.48 0 0 Z " fill="#FCFCFC" transform="translate(760,613)"/>
<path d="M0 0 C0.66 0.66 1.32 1.32 2 2 C1.67 2.99 1.34 3.98 1 5 C-1.97 4.67 -4.94 4.34 -8 4 C-8.33 5.32 -8.66 6.64 -9 8 C-8.31292969 8.25394531 -7.62585938 8.50789062 -6.91796875 8.76953125 C-6.01691406 9.11371094 -5.11585938 9.45789063 -4.1875 9.8125 C-2.84751953 10.31716797 -2.84751953 10.31716797 -1.48046875 10.83203125 C0.94824742 11.97563146 2.36859837 12.88461589 4 15 C3.9375 17.5 3.9375 17.5 3 20 C0.00343493 22.82148486 -2.04980987 23.39157085 -6.125 23.3125 C-6.99382813 23.30863281 -7.86265625 23.30476562 -8.7578125 23.30078125 C-11 23 -11 23 -13 21 C-12.505 19.515 -12.505 19.515 -12 18 C-11.34 18.33 -10.68 18.66 -10 19 C-8.45976004 19.06950541 -6.91665012 19.08452357 -5.375 19.0625 C-4.55773437 19.05347656 -3.74046875 19.04445313 -2.8984375 19.03515625 C-2.27195312 19.02355469 -1.64546875 19.01195312 -1 19 C-1 17.68 -1 16.36 -1 15 C-1.61488281 14.80664062 -2.22976563 14.61328125 -2.86328125 14.4140625 C-3.67152344 14.15367187 -4.47976563 13.89328125 -5.3125 13.625 C-6.51326172 13.24214844 -6.51326172 13.24214844 -7.73828125 12.8515625 C-10 12 -10 12 -13 10 C-13.5 7.125 -13.5 7.125 -13 4 C-9.10999222 -0.61938424 -5.65019266 -0.55575666 0 0 Z " fill="#E8E8E8" transform="translate(575,612)"/>
<path d="M0 0 C0.99 0 1.98 0 3 0 C4.53515625 2.1875 4.53515625 2.1875 6.0625 5 C6.98862341 6.69671464 7.95676475 8.37266925 9 10 C9.66 10 10.32 10 11 10 C12.62600413 7.46361472 14.02729536 4.83464792 15.46484375 2.1875 C16.22474609 1.1046875 16.22474609 1.1046875 17 0 C17.99 0 18.98 0 20 0 C18.81191348 3.34824382 17.26964728 6.22642747 15.4375 9.25 C12.78356233 13.89439093 12.25286154 17.68990773 12 23 C10.68 23 9.36 23 8 23 C7.979375 21.741875 7.95875 20.48375 7.9375 19.1875 C7.37173742 13.60943454 4.67927394 9.87897446 1.49609375 5.3828125 C0 3 0 3 0 0 Z " fill="#E1E2E1" transform="translate(860,612)"/>
<path d="M0 0 C0.99 0.33 1.98 0.66 3 1 C2.154375 1.969375 1.30875 2.93875 0.4375 3.9375 C-1.88163289 7.1165361 -2.28141174 9.03812868 -1.8125 12.9375 C-1.544375 14.278125 -1.27625 15.61875 -1 17 C2.63 17.66 6.26 18.32 10 19 C9.67 19.99 9.34 20.98 9 22 C1.23214286 22.66964286 1.23214286 22.66964286 -2.4375 19.6875 C-5.4736549 16.50323998 -5.92826688 14.96839717 -6.25 10.625 C-5.98284578 6.7512638 -5.34494559 5.03974428 -3 2 C-2.01 1.34 -1.02 0.68 0 0 Z " fill="#ECECEC" transform="translate(798,613)"/>
<path d="M0 0 C5.94 0 11.88 0 18 0 C18 0.66 18 1.32 18 2 C15.69 2 13.38 2 11 2 C11 8.6 11 15.2 11 22 C10.01 22 9.02 22 8 22 C8 15.4 8 8.8 8 2 C5.36 2 2.72 2 0 2 C0 1.34 0 0.68 0 0 Z " fill="#F5F5F5" transform="translate(730,613)"/>
<path d="M0 0 C1.32 0 2.64 0 4 0 C4 7.59 4 15.18 4 23 C2.68 23 1.36 23 0 23 C0 15.41 0 7.82 0 0 Z " fill="#D3D4D4" transform="translate(511,612)"/>
<path d="M0 0 C1.32 0 2.64 0 4 0 C4 7.59 4 15.18 4 23 C2.68 23 1.36 23 0 23 C0 15.41 0 7.82 0 0 Z " fill="#D3D4D4" transform="translate(387,612)"/>
<path d="M0 0 C0.33 0.66 0.66 1.32 1 2 C5.62 2 10.24 2 15 2 C15 2.99 15 3.98 15 5 C9.06 5 3.12 5 -3 5 C-1 1 -1 1 0 0 Z " fill="#F5F5F5" transform="translate(436,630)"/>
<path d="M0 0 C0.33 0.66 0.66 1.32 1 2 C5.62 2 10.24 2 15 2 C15 2.99 15 3.98 15 5 C9.06 5 3.12 5 -3 5 C-1 1 -1 1 0 0 Z " fill="#F5F5F5" transform="translate(407,630)"/>
<path d="M0 0 C0.66 0 1.32 0 2 0 C3.32 3.3 4.64 6.6 6 10 C2.7 10 -0.6 10 -4 10 C-2.68 6.7 -1.36 3.4 0 0 Z " fill="#343837" transform="translate(709,617)"/>
<path d="M0 0 C2.33936818 2.12669835 3.80653848 4.06224856 5 7 C5 7.99 5 8.98 5 10 C2.03 10 -0.94 10 -4 10 C-2.8905928 6.51329166 -1.73662334 3.22515763 0 0 Z " fill="#313635" transform="translate(599,617)"/>
<path d="M0 0 C2.33936818 2.12669835 3.80653848 4.06224856 5 7 C5 7.99 5 8.98 5 10 C2.03 10 -0.94 10 -4 10 C-2.8905928 6.51329166 -1.73662334 3.22515763 0 0 Z " fill="#313635" transform="translate(471,617)"/>
<path d="M0 0 C0.33 0.99 0.66 1.98 1 3 C-0.29296875 4.97265625 -0.29296875 4.97265625 -2.1875 7.0625 C-2.79980469 7.75472656 -3.41210938 8.44695313 -4.04296875 9.16015625 C-5.9668394 10.96882506 -7.62877298 11.89539114 -10 13 C-10.66 13.66 -11.32 14.32 -12 15 C-11.40632048 11.46167007 -10.06937798 9.5845978 -7.6875 6.9375 C-6.79611328 5.93009766 -6.79611328 5.93009766 -5.88671875 4.90234375 C-4.04037697 3.04071136 -2.13642508 1.51389062 0 0 Z " fill="#E2E3E3" transform="translate(444,620)"/>
<path d="M0 0 C0.33 0.99 0.66 1.98 1 3 C-0.29296875 4.97265625 -0.29296875 4.97265625 -2.1875 7.0625 C-2.79980469 7.75472656 -3.41210938 8.44695313 -4.04296875 9.16015625 C-5.9668394 10.96882506 -7.62877298 11.89539114 -10 13 C-10.66 13.66 -11.32 14.32 -12 15 C-11.40632048 11.46167007 -10.06937798 9.5845978 -7.6875 6.9375 C-6.79611328 5.93009766 -6.79611328 5.93009766 -5.88671875 4.90234375 C-4.04037697 3.04071136 -2.13642508 1.51389062 0 0 Z " fill="#E2E3E3" transform="translate(415,620)"/>
<path d="M0 0 C6.0546875 -0.1953125 6.0546875 -0.1953125 8 0 C8.66 0.66 9.32 1.32 10 2 C9.67 2.99 9.34 3.98 9 5 C5.7 4.34 2.4 3.68 -1 3 C-0.67 2.01 -0.34 1.02 0 0 Z " fill="#DEDFDE" transform="translate(567,612)"/>
<path d="M0 0 C1 3 1 3 -0.25 6.125 C-2 9 -2 9 -5 10 C-4.49701212 5.59885603 -2.91227269 3.28804981 0 0 Z " fill="#F1F1F1" transform="translate(708,616)"/>
<path d="M0 0 C0.33 0.99 0.66 1.98 1 3 C-4.75 6.875 -4.75 6.875 -7 8 C-5.50902342 4.2047869 -3.24299151 2.38957269 0 0 Z " fill="#E9EAEA" transform="translate(444,620)"/>
<path d="M0 0 C0.33 0.99 0.66 1.98 1 3 C-4.75 6.875 -4.75 6.875 -7 8 C-5.50902342 4.2047869 -3.24299151 2.38957269 0 0 Z " fill="#E9EAEA" transform="translate(415,620)"/>
<path d="M0 0 C1.125 3.75 1.125 3.75 0 6 C-1.32 5.67 -2.64 5.34 -4 5 C-2.25 1.125 -2.25 1.125 0 0 Z " fill="#ECECEC" transform="translate(702,629)"/>
</svg>
